# xmcd CD database file
#
# Track frame offsets:
#	150
#	16685
#	41828
#	62254
#	75080
#
# Disc length: 1308 seconds
#
# Revision: 0
# Processed by: cddbd v1.5.1PL0 Copyright (c) Steve Scherf et al.
# Submitted via: CDex 1.51
#
DISCID=26051a05
DTITLE=PSYDOLL - STORIES
DYEAR=1900
DGENRE=未分類 (日本)
TTITLE0=DIVINZG
TTITLE1=晴れた空 残るもの
TTITLE2=硝子箱の少女
TTITLE3=THE ISLAND
TTITLE4=A VIEW OF THE END
EXTD=
EXTT0=
EXTT1=
EXTT2=
EXTT3=
EXTT4=
PLAYORDER=
